<svg width="518" height="608" viewBox="0 0 518 608" fill="none" xmlns="http://www.w3.org/2000/svg">
<path d="M262.182 1.21716C249.782 2.5505 230.182 8.81716 218.715 15.2172C207.648 21.4838 192.315 34.0172 185.915 42.1505L180.715 48.8172L169.915 43.6172C151.915 35.0839 140.848 32.6838 118.448 32.6838C102.982 32.6838 97.1151 33.2172 88.9818 35.4838C68.7151 40.9505 52.4484 50.1505 36.7151 65.0839C10.8484 89.4839 -1.68489 120.817 0.181773 157.484C2.04844 196.017 21.5151 229.884 54.0484 250.951C63.3818 256.951 79.9151 264.417 87.5151 265.884L91.2484 266.684L88.3151 277.084C86.5818 282.817 83.6484 298.151 81.5151 311.084L77.9151 334.684L69.6484 338.551C54.7151 345.617 42.8484 358.817 38.0484 373.751C32.8484 389.884 34.0484 416.151 40.5818 429.884C42.4484 433.884 47.2484 440.551 51.2484 444.684L58.5818 452.151L49.7818 505.217C44.9818 534.551 41.1151 561.084 41.1151 564.284C41.1151 584.551 57.2484 602.817 78.1818 606.417C84.4484 607.351 135.248 607.751 251.782 607.484C408.448 607.084 416.715 606.951 422.848 604.551C430.848 601.484 442.715 590.684 446.315 583.351C452.182 571.084 452.182 569.751 443.648 490.551C439.382 449.884 435.782 416.284 435.782 415.751C435.782 415.084 438.715 412.817 442.315 410.551C458.315 400.151 470.315 381.617 473.248 362.417C474.582 353.617 474.315 349.617 471.248 327.884C469.382 314.284 467.915 303.084 468.182 302.951C468.315 302.817 473.115 300.817 478.848 298.417C484.582 296.017 492.182 291.751 495.782 288.951C519.382 270.284 524.048 234.017 506.048 209.484C499.382 200.551 493.248 195.617 483.382 190.951C470.848 185.351 465.782 184.951 418.715 187.084C394.715 188.151 374.582 189.084 374.048 189.084C373.382 189.084 374.182 187.351 375.782 185.084C380.582 178.284 388.848 159.484 391.648 148.817C399.382 119.217 394.582 85.8839 378.848 59.0839C372.315 47.7505 357.515 31.4839 346.582 23.3505C330.982 11.7505 309.915 3.6172 289.115 1.08386C276.848 -0.382804 276.982 -0.382837 262.182 1.21716ZM299.782 24.6838C311.782 27.4838 328.448 35.8839 338.715 44.2839C353.915 56.9505 365.648 75.4839 371.248 95.7505C374.448 107.351 374.448 130.551 371.382 142.417C367.915 155.884 358.315 174.017 350.182 182.684L343.115 190.284L313.915 191.617C286.448 192.817 284.715 193.084 281.648 195.884C278.448 198.817 277.515 203.884 279.248 208.417C281.515 214.284 282.048 214.284 373.782 210.284C421.515 208.284 462.582 206.951 465.115 207.351C472.448 208.684 478.048 211.484 483.915 216.684C492.582 224.551 495.115 230.551 495.115 243.751C495.115 257.351 492.582 263.217 483.115 271.484C477.248 276.551 473.248 278.151 425.382 293.751C264.582 346.284 274.182 342.551 261.782 355.884C240.048 379.084 240.848 415.884 263.382 438.151C279.648 454.151 302.982 459.751 323.782 452.551C326.982 451.484 329.915 450.817 330.315 451.084C330.982 451.751 321.382 582.017 320.448 584.684C319.648 586.951 87.2484 587.217 79.1151 584.951C71.9151 582.951 64.3151 575.084 62.9818 568.417C62.1818 563.751 67.6484 525.217 77.3818 468.684L78.7151 461.084H89.1151C113.248 461.084 132.982 449.084 142.582 428.551C151.382 409.617 151.515 382.551 142.848 364.017C136.315 350.151 119.648 337.217 105.248 334.951C102.315 334.417 99.7818 333.617 99.7818 332.951C99.7818 327.351 107.515 286.417 109.782 279.351C118.048 254.951 137.915 234.417 162.715 224.551C173.915 220.151 180.448 218.951 199.115 217.751C207.248 217.351 214.848 216.551 216.182 216.284C218.715 215.484 222.448 209.217 222.448 205.751C222.448 204.551 216.848 198.017 210.182 191.217C197.248 178.417 191.115 169.484 185.515 155.751C168.848 114.284 182.848 66.1505 219.115 40.4172C243.648 23.0838 270.582 17.7505 299.782 24.6838ZM143.782 56.4172C147.782 57.6172 155.248 60.4172 160.182 62.6839C167.248 66.0172 168.982 67.3506 168.315 68.9506C167.782 70.1506 165.648 75.8839 163.648 81.7505C151.248 117.484 156.982 157.351 179.248 188.551L184.982 196.817L176.715 198.284C149.915 203.351 124.848 218.151 108.848 238.284L101.648 247.351L92.9818 245.084C50.5818 234.017 21.2484 195.351 21.1151 150.417C21.1151 103.617 55.5151 62.8172 102.182 54.4172C111.382 52.6838 135.248 53.8838 143.782 56.4172ZM450.448 332.684C453.382 354.151 453.382 355.484 451.248 363.751C447.782 377.351 439.382 388.417 427.782 394.417C426.048 395.351 399.115 404.817 367.915 415.351C330.848 427.884 309.515 434.417 305.782 434.417C280.982 434.417 262.448 410.951 268.448 387.351C270.848 377.884 276.448 369.484 283.648 364.551C287.382 361.884 313.515 352.817 367.382 335.084C410.582 321.084 446.182 309.751 446.582 309.884C447.115 310.151 448.848 320.417 450.448 332.684ZM103.648 356.551C113.782 359.484 122.848 368.817 125.915 379.217C128.582 388.551 127.915 409.751 124.715 417.217C121.648 424.551 113.248 433.084 105.782 436.551C98.4484 440.017 88.0484 440.684 79.2484 438.284C72.1818 436.284 61.7818 426.417 58.8484 418.684C56.3151 412.017 55.5151 391.484 57.5151 382.284C59.7818 371.217 70.7151 360.151 82.7151 356.417C90.4484 354.017 95.2484 354.017 103.648 356.551ZM422.715 493.884C426.848 532.684 429.915 565.884 429.515 567.751C428.315 573.351 423.915 579.484 418.715 582.684C413.915 585.617 412.582 585.751 378.182 586.151L342.448 586.551V582.817C342.582 575.351 352.848 443.484 353.515 442.951C354.582 441.751 412.448 422.684 413.782 422.951C414.448 423.217 418.448 454.817 422.715 493.884Z" fill="#f29100"/>
</svg>
